<svg width="44" height="11" viewBox="0 0 44 11" fill="none" xmlns="http://www.w3.org/2000/svg">
<path d="M6.24 5.572H8.7V9.124C8.204 9.468 7.628 9.732 6.972 9.916C6.316 10.1 5.672 10.192 5.04 10.192C4.144 10.192 3.34 10.008 2.628 9.64C1.916 9.264 1.356 8.744 0.948 8.08C0.548 7.408 0.348 6.648 0.348 5.8C0.348 4.952 0.548 4.196 0.948 3.532C1.356 2.86 1.92 2.34 2.64 1.972C3.368 1.596 4.188 1.408 5.1 1.408C5.924 1.408 6.66 1.548 7.308 1.828C7.964 2.1 8.508 2.5 8.94 3.028L7.128 4.624C6.6 4.008 5.972 3.7 5.244 3.7C4.62 3.7 4.124 3.888 3.756 4.264C3.388 4.64 3.204 5.152 3.204 5.8C3.204 6.432 3.384 6.94 3.744 7.324C4.112 7.708 4.6 7.9 5.208 7.9C5.568 7.9 5.912 7.832 6.24 7.696V5.572ZM16.8067 6.712C16.8067 6.752 16.7947 6.964 16.7707 7.348H12.2107C12.3067 7.596 12.4667 7.788 12.6907 7.924C12.9147 8.052 13.1947 8.116 13.5307 8.116C13.8187 8.116 14.0587 8.08 14.2507 8.008C14.4507 7.936 14.6667 7.812 14.8987 7.636L16.3147 9.064C15.6747 9.768 14.7187 10.12 13.4467 10.12C12.6547 10.12 11.9587 9.976 11.3587 9.688C10.7587 9.392 10.2947 8.984 9.96666 8.464C9.63866 7.944 9.47466 7.36 9.47466 6.712C9.47466 6.056 9.63466 5.472 9.95466 4.96C10.2827 4.44 10.7267 4.036 11.2867 3.748C11.8547 3.46 12.4907 3.316 13.1947 3.316C13.8587 3.316 14.4627 3.448 15.0067 3.712C15.5587 3.976 15.9947 4.364 16.3147 4.876C16.6427 5.388 16.8067 6 16.8067 6.712ZM13.2187 5.164C12.9387 5.164 12.7067 5.24 12.5227 5.392C12.3387 5.544 12.2187 5.76 12.1627 6.04H14.2747C14.2187 5.768 14.0987 5.556 13.9147 5.404C13.7307 5.244 13.4987 5.164 13.2187 5.164ZM22.4985 9.772C22.0905 10.004 21.5345 10.12 20.8305 10.12C19.9105 10.12 19.2025 9.9 18.7065 9.46C18.2105 9.012 17.9625 8.344 17.9625 7.456V5.776H17.0625V3.796H17.9625V1.96H20.6745V3.796H22.0185V5.776H20.6745V7.432C20.6745 7.632 20.7265 7.788 20.8305 7.9C20.9345 8.012 21.0705 8.068 21.2385 8.068C21.4705 8.068 21.6745 8.008 21.8505 7.888L22.4985 9.772ZM26.098 3.736V5.176H29.602V7.312H26.098V10H23.266V1.6H30.094V3.736H26.098ZM30.7875 3.436H33.4995V10H30.7875V3.436ZM32.1435 2.908C31.6555 2.908 31.2595 2.78 30.9555 2.524C30.6595 2.26 30.5115 1.928 30.5115 1.528C30.5115 1.128 30.6595 0.799999 30.9555 0.543999C31.2595 0.279999 31.6555 0.148 32.1435 0.148C32.6395 0.148 33.0355 0.272 33.3315 0.52C33.6275 0.767999 33.7755 1.088 33.7755 1.48C33.7755 1.896 33.6275 2.24 33.3315 2.512C33.0355 2.776 32.6395 2.908 32.1435 2.908ZM39.5376 9.772C39.1296 10.004 38.5736 10.12 37.8696 10.12C36.9496 10.12 36.2416 9.9 35.7456 9.46C35.2496 9.012 35.0016 8.344 35.0016 7.456V5.776H34.1016V3.796H35.0016V1.96H37.7136V3.796H39.0576V5.776H37.7136V7.432C37.7136 7.632 37.7656 7.788 37.8696 7.9C37.9736 8.012 38.1096 8.068 38.2776 8.068C38.5096 8.068 38.7136 8.008 38.8896 7.888L39.5376 9.772ZM41.5623 10.12C41.1063 10.12 40.7263 9.976 40.4223 9.688C40.1263 9.392 39.9783 9.016 39.9783 8.56C39.9783 8.104 40.1263 7.736 40.4223 7.456C40.7263 7.168 41.1063 7.024 41.5623 7.024C42.0183 7.024 42.3943 7.168 42.6903 7.456C42.9943 7.736 43.1463 8.104 43.1463 8.56C43.1463 9.016 42.9943 9.392 42.6903 9.688C42.3943 9.976 42.0183 10.12 41.5623 10.12Z" fill="white"/>
</svg>
